<?xml version="1.0" encoding="UTF-8" standalone="no"?><!DOCTYPE svg PUBLIC "-//W3C//DTD SVG 1.1//EN" "http://www.w3.org/Graphics/SVG/1.1/DTD/svg11.dtd"><svg width="100%" height="100%" viewBox="0 0 870 200" version="1.1" xmlns="http://www.w3.org/2000/svg" xmlns:xlink="http://www.w3.org/1999/xlink" xml:space="preserve" xmlns:serif="http://www.serif.com/" style="fill-rule:evenodd;clip-rule:evenodd;stroke-linejoin:round;stroke-miterlimit:2;"><path d="M870,50c0,-27.596 -22.404,-50 -50,-50l-770,0c-27.596,0 -50,22.404 -50,50l0,100c0,27.596 22.404,50 50,50l770,0c27.596,0 50,-22.404 50,-50l0,-100Z" style="fill:url(#_Linear1);"/><path d="M116.751,114.908c-2.736,11.955 -9.936,18.725 -21.744,18.725c-15.552,-0 -23.328,-12.531 -23.328,-33.705c0,-20.886 7.776,-33.705 24.336,-33.705c9.504,-0 18,6.481 20.736,17.284l20.016,0c-1.872,-19.298 -16.992,-34.546 -40.896,-34.546c-27.357,-0 -44.478,19.71 -44.478,52.119c0,32.841 19.135,49.959 44.19,49.959c22.176,-0 37.152,-14.385 41.184,-36.131l-20.016,-0Z" style="fill:#fff;fill-rule:nonzero;stroke:#000;stroke-width:4px;"/><path d="M213.951,147.727l0,-17.406l-47.376,0l0,-78.192l-19.998,-0l0,95.598l67.374,0Z" style="fill:#fff;fill-rule:nonzero;stroke:#000;stroke-width:4px;"/><rect x="224.481" y="52.129" width="19.998" height="95.598" style="fill:#fff;fill-rule:nonzero;stroke:#000;stroke-width:4px;"/><path d="M321.375,114.908c-2.736,11.955 -9.936,18.725 -21.744,18.725c-15.552,-0 -23.328,-12.531 -23.328,-33.705c0,-20.886 7.776,-33.705 24.336,-33.705c9.504,-0 18,6.481 20.736,17.284l20.016,0c-1.872,-19.298 -16.992,-34.546 -40.896,-34.546c-27.357,-0 -44.478,19.71 -44.478,52.119c0,32.841 19.135,49.959 44.19,49.959c22.176,-0 37.152,-14.385 41.184,-36.131l-20.016,-0Z" style="fill:#fff;fill-rule:nonzero;stroke:#000;stroke-width:4px;"/><path d="M434.271,147.727l-38.592,-57.877l37.728,-37.721l-25.92,-0l-36.576,38.872l0,-38.872l-19.71,-0l0,95.598l19.71,0l0,-32.538l10.656,-10.51l28.368,43.048l24.336,0Z" style="fill:#fff;fill-rule:nonzero;stroke:#000;stroke-width:4px;"/><path d="M561.855,147.727l0,-95.598l-20.142,-0l0,36l-37.314,-0l0,-36l-19.998,-0l0,95.598l19.998,0l0,-42.912l37.314,0l0,42.912l20.142,0Z" style="fill:#fff;fill-rule:nonzero;stroke:#000;stroke-width:4px;"/><path d="M647.247,147.727l0,-16.974l-53.136,-0l0,-24.642l46.8,-0l0,-16.83l-46.8,-0l0,-20.466l50.832,-0l0,-16.686l-70.254,-0l0,95.598l72.558,-0Z" style="fill:#fff;fill-rule:nonzero;stroke:#000;stroke-width:4px;"/><path d="M702.267,68.671c9.94,-0 13.974,5.332 13.974,12.825c0,7.349 -4.034,12.681 -14.695,12.681l-25.067,-0l0,-25.506l25.788,-0Zm30.084,79.056l0,-27.072c0,-11.231 -3.165,-15.978 -11.653,-18.711c9.21,-3.308 14.245,-11.946 14.245,-22.177c0,-15.843 -11.653,-27.638 -29.363,-27.638l-48.523,0l0,95.598l19.422,0l0,-37.44l21.322,0c11.527,0 14.984,3.6 14.984,12.816l0,24.624l19.566,0Z" style="fill:#fff;fill-rule:nonzero;stroke:#000;stroke-width:4px;"/><path d="M818.607,147.727l0,-16.974l-53.136,-0l0,-24.642l46.8,-0l0,-16.83l-46.8,-0l0,-20.466l50.832,-0l0,-16.686l-70.254,-0l0,95.598l72.558,-0Z" style="fill:#fff;fill-rule:nonzero;stroke:#000;stroke-width:4px;"/><defs><linearGradient id="_Linear1" x1="0" y1="0" x2="1" y2="0" gradientUnits="userSpaceOnUse" gradientTransform="matrix(870,0,0,200,0,100)"><stop offset="0" style="stop-color:#ff6200;stop-opacity:1"/><stop offset="1" style="stop-color:#8600ff;stop-opacity:1"/></linearGradient></defs></svg>